<svg xmlns="http://www.w3.org/2000/svg" width="500" height="500" viewBox="0 0 500 500" version="1.1"><path d="M 368.738 79.195 C 347.742 109.311, 313.288 146.623, 278 177.463 C 255.559 197.075, 214.603 228.936, 213.391 227.725 C 213.119 227.453, 220.784 201.743, 230.423 170.592 C 240.063 139.441, 248.468 110.979, 249.101 107.342 C 251.710 92.362, 248.267 80.916, 239.526 75.509 C 229.904 69.557, 211.108 71.176, 193.647 79.462 C 162.156 94.406, 133.144 125.986, 127.468 151.499 C 122.271 174.861, 133.196 190.054, 156.855 192.369 C 162.629 192.934, 163.149 192.832, 162.534 191.246 C 158.543 180.951, 157.969 167.352, 161.022 155.410 C 169.897 120.698, 191.660 93.439, 212.188 91.320 C 216.957 90.828, 217.955 91.058, 220.479 93.228 C 225.511 97.556, 224.777 100.871, 209.109 144.600 C 191.346 194.174, 170.996 252.451, 146.886 322.788 C 125.513 385.141, 117.500 407.285, 109.521 426.038 C 106.485 433.176, 104 439.290, 104 439.626 C 104 440.727, 121.315 438.908, 130 436.895 C 142.279 434.050, 148.474 429.290, 152.530 419.583 C 153.405 417.488, 163.561 385.358, 175.099 348.182 C 186.636 311.007, 196.218 280.448, 196.392 280.274 C 196.566 280.100, 200.654 287.023, 205.477 295.659 C 240.778 358.865, 288.165 421.446, 314.042 439.032 C 330.094 449.941, 339.789 450.663, 352.875 441.924 C 358.074 438.453, 365 431.028, 365 428.926 C 365 428.552, 358.587 423.074, 350.750 416.752 C 308.368 382.565, 276.993 350.702, 252.187 316.655 C 240.274 300.304, 212.990 259.718, 213.021 258.395 C 213.033 257.903, 219.876 253, 228.229 247.500 C 291.599 205.773, 346.575 161.753, 365.615 137.495 C 380.584 118.423, 385.748 104.667, 383.730 89.229 C 382.865 82.608, 380.373 76.070, 377.214 72.132 L 375.314 69.764 368.738 79.195" stroke="none" fill="#451d55" fill-rule="evenodd"/><path d="M 0 250.002 L 0 500.004 250.250 499.752 L 500.500 499.500 500.752 249.750 L 501.004 0 250.502 0 L 0 0 0 250.002 M 0.492 250.500 C 0.492 388, 0.608 444.101, 0.750 375.170 C 0.892 306.238, 0.892 193.738, 0.750 125.170 C 0.608 56.601, 0.492 113, 0.492 250.500 M 368.738 79.195 C 347.742 109.311, 313.288 146.623, 278 177.463 C 255.559 197.075, 214.603 228.936, 213.391 227.725 C 213.119 227.453, 220.784 201.743, 230.423 170.592 C 240.063 139.441, 248.468 110.979, 249.101 107.342 C 251.710 92.362, 248.267 80.916, 239.526 75.509 C 229.904 69.557, 211.108 71.176, 193.647 79.462 C 162.156 94.406, 133.144 125.986, 127.468 151.499 C 122.271 174.861, 133.196 190.054, 156.855 192.369 C 162.629 192.934, 163.149 192.832, 162.534 191.246 C 158.543 180.951, 157.969 167.352, 161.022 155.410 C 169.897 120.698, 191.660 93.439, 212.188 91.320 C 216.957 90.828, 217.955 91.058, 220.479 93.228 C 225.511 97.556, 224.777 100.871, 209.109 144.600 C 191.346 194.174, 170.996 252.451, 146.886 322.788 C 125.513 385.141, 117.500 407.285, 109.521 426.038 C 106.485 433.176, 104 439.290, 104 439.626 C 104 440.727, 121.315 438.908, 130 436.895 C 142.279 434.050, 148.474 429.290, 152.530 419.583 C 153.405 417.488, 163.561 385.358, 175.099 348.182 C 186.636 311.007, 196.218 280.448, 196.392 280.274 C 196.566 280.100, 200.654 287.023, 205.477 295.659 C 240.778 358.865, 288.165 421.446, 314.042 439.032 C 330.094 449.941, 339.789 450.663, 352.875 441.924 C 358.074 438.453, 365 431.028, 365 428.926 C 365 428.552, 358.587 423.074, 350.750 416.752 C 308.368 382.565, 276.993 350.702, 252.187 316.655 C 240.274 300.304, 212.990 259.718, 213.021 258.395 C 213.033 257.903, 219.876 253, 228.229 247.500 C 291.599 205.773, 346.575 161.753, 365.615 137.495 C 380.584 118.423, 385.748 104.667, 383.730 89.229 C 382.865 82.608, 380.373 76.070, 377.214 72.132 L 375.314 69.764 368.738 79.195" stroke="none" fill="#d1f3f9" fill-rule="evenodd"/></svg>