<svg xmlns="http://www.w3.org/2000/svg" version="1.1" xmlns:xlink="http://www.w3.org/1999/xlink" xmlns:svgjs="http://svgjs.dev/svgjs" width="2000" height="2250" viewBox="0 0 2000 2250"><g transform="matrix(1,0,0,1,3.410605131648481e-13,0)"><svg viewBox="0 0 320 360" data-background-color="#050816" preserveAspectRatio="xMidYMid meet" height="2250" width="2000" xmlns="http://www.w3.org/2000/svg" xmlns:xlink="http://www.w3.org/1999/xlink"><g id="tight-bounds" transform="matrix(1,0,0,1,0,0)"><svg viewBox="0 0 320 360" height="360" width="320"><g><svg></svg></g><g><svg viewBox="0 0 320 360" height="360" width="320"><g><path d="M20.961 227.22l3.726 4.658-1.863-6.056c-0.466-2.795-3.726 0.466-1.863 1.398M25.153 224.425c1.397 2.329 2.795 4.658 2.795 6.987 0 3.261 2.795 4.658 5.123 5.589-3.261-3.726-5.124-13.974-7.918-12.576M204.017 26.929c7.918 0 15.371-0.932 23.756 0.931 20.495 5.124 37.729 15.371 49.374 29.811l32.606 52.169c1.397 13.042 4.192 27.482 3.726 43.319 3.261 0 2.795-4.658 6.521-5.59-3.726 9.316-5.59 20.961-6.521 34.469-2.329-7.453 0-18.632 0.466-24.687-3.261 5.124-5.124 1.397-5.124-0.932 0.466-3.726-1.397-3.261-2.795-4.658-5.124-4.658-8.384-9.782-12.11-17.7 2.329-6.055 2.795-14.905-4.658-19.563-2.329-1.397-5.124-3.726-6.521-7.453-1.863-5.124-5.124-11.179-4.193-19.097 0.466-2.329-6.987 5.124-11.179 1.863-18.166-12.576-36.332-27.016-58.224-39.127-11.645 0-20.029-4.192-24.221-9.316-3.726-4.658-0.932-10.713 4.658-11.179 3.261 0 6.987-0.932 9.782 0.932 0.466-1.863 2.329-4.192 4.657-4.192M157.904 16.215l0.932 0.466c4.658 0.932 6.987 7.453 12.11 5.124 0 3.261 0.466 6.521-0.466 8.85-1.397 3.726-5.59 3.726-8.85 3.726-31.208-1.863-49.374 11.179-68.471 22.358-5.124 3.261-10.713 5.59-14.906 9.782-20.029 18.632-41.921 35.866-47.045 70.335l-4.192 38.195c-0.466 4.192-5.124 8.384-4.192 13.508l3.26 22.824c-3.261-3.261-5.124 0.932-4.192 2.795 0.466 1.397 2.329 6.055 5.124 1.863 3.726 6.987 7.453 20.495 12.576 26.55 15.837 18.632 36.332 35.4 53.101 52.169 4.192-0.932 7.453-0.932 8.384-3.727 1.397 2.795-1.397 5.59-3.726 6.056 7.453 4.658 15.837 8.85 27.016 9.781 14.44 0.932 27.948 3.261 40.524 6.522 6.521-1.863 13.042-2.795 20.029-3.261 2.329 0 3.726-3.726 6.521-4.658l0.466-4.658c2.795 4.192 2.329-1.397 0.466-4.192 3.261 2.795 4.192 5.124 5.589 6.987 0-1.397 3.726-6.521 3.727-0.466l0.931-6.055c1.397-0.932 1.863 5.124 3.261 0.931 1.397-4.192 4.192-0.932 6.987-2.329-0.932 1.863-0.466 5.59 2.794 3.261l3.727-3.261c2.329 5.59 6.055 3.261 7.918 2.329 20.495-13.042 40.99-28.413 60.553-43.784l-0.466 6.055 2.329-7.453c2.329 2.329 4.192 0.466 5.124-0.931 2.795-4.658 6.521-9.316 12.577-13.508-7.453 20.029-16.303 35.866-27.482 48.908l-4.658 5.59c0 3.261-0.932 7.453-4.658 7.918-1.863 0.466-5.59-0.932-8.384 1.863-1.397 1.863 3.261 5.59-0.466 2.795-3.261-2.329-6.521 0-10.248 0.932-2.795 0.932 1.863 3.726 2.795 5.589 0.932 1.863 1.863 3.726 1.398 6.056l-5.124-5.59c-6.055 3.261-9.782 9.316-14.906 13.974-2.329 1.863-1.397 5.124-1.397 7.918-3.261 0-6.987-0.932-8.85 0.932-1.397 1.863-0.932 4.658-0.932 7.453-4.658-0.466-5.124-7.453-9.315-6.056-4.192 0.932-8.85 1.397-12.577 3.727 2.795 5.59-4.658 2.329-3.726 3.26-6.987-4.192-13.042-7.453-20.495-4.658-15.837-5.124-35.4-2.795-49.84-0.931 0-2.329 0.466-4.658-0.466-5.124-0.932 2.329-3.726 1.397-3.26 1.397-8.85-6.055-17.7-9.782-27.016-14.905-8.384 0.932-16.303-3.261-18.632-5.59-6.521-6.055-13.974-2.795-20.029-4.192-13.042-3.261-17.7-16.769-19.098-26.084-0.932-4.658-4.658-6.521-6.055-6.056-6.055-19.563-15.371-37.263-22.824-55.429-1.863-4.658-1.397-9.316-1.397-14.44 2.329 0.932 4.658 0.466 4.192-2.794-2.329-15.371-7.918-27.016-13.974-38.195 3.261-15.837 3.726-34.469 11.179-48.443 6.521-12.576 18.632-19.098 27.016-29.811 2.795-3.726 2.795-8.85 5.59-12.11 9.316-9.316 18.632-19.098 28.879-27.482 4.658-3.726 10.247 0 17.234-1.397 2.329-8.384 11.645-15.837 20.495-13.508 3.726 0.932 11.179-8.85 13.508-9.782 3.726-1.397 1.863 3.726 1.863 6.987 8.85-6.987 20.961-10.713 32.14-14.906" fill="#005da3" fill-rule="nonzero" stroke="none" stroke-width="1" stroke-linecap="butt" stroke-linejoin="miter" stroke-miterlimit="10" stroke-dasharray="" stroke-dashoffset="0" font-family="none" font-weight="none" font-size="none" text-anchor="none" style="mix-blend-mode: normal" data-fill-palette-color="tertiary"></path></g><g transform="matrix(1,0,0,1,64,156.57012691181257)"><svg viewBox="0 0 192 46.85974617637487" height="46.85974617637487" width="192"><g><svg viewBox="0 0 192 46.85974617637487" height="46.85974617637487" width="192"><g><svg viewBox="0 0 192 46.85974617637487" height="46.85974617637487" width="192"><g><svg viewBox="0 0 192 46.85974617637487" height="46.85974617637487" width="192"><g id="textblocktransform"><svg viewBox="0 0 192 46.85974617637487" height="46.85974617637487" width="192" id="textblock"><g><svg viewBox="0 0 192 46.85974617637487" height="46.85974617637487" width="192"><g transform="matrix(1,0,0,1,0,0)"><svg width="192" viewBox="3.6 -37.1 153.64000000000001 37.5" height="46.85974617637487" data-palette-color="#ffffff"><path d="M23.65 0L15.15-10.55 11.4-6.85 11.4 0 3.6 0 3.6-37.1 11.4-37.1 11.4-16.1 22.8-26.9 32.1-26.9 20.9-15.5 33.1 0 23.65 0ZM34-35L49.1-35 49.1 0 41 0 41-28.5 34-28.5 34-35ZM76.45-37.1L84.25-37.1 84.25 0 76.8 0 76.8-3.1Q73.9 0.4 68.4 0.4L68.4 0.4Q64.59 0.4 61.52-1.3 58.45-3 56.7-6.15 54.95-9.3 54.95-13.45L54.95-13.45Q54.95-17.6 56.7-20.75 58.45-23.9 61.52-25.6 64.59-27.3 68.4-27.3L68.4-27.3Q73.55-27.3 76.45-24.05L76.45-24.05 76.45-37.1ZM69.75-6Q72.7-6 74.65-8.03 76.59-10.05 76.59-13.45L76.59-13.45Q76.59-16.85 74.65-18.88 72.7-20.9 69.75-20.9L69.75-20.9Q66.75-20.9 64.8-18.88 62.85-16.85 62.85-13.45L62.85-13.45Q62.85-10.05 64.8-8.03 66.75-6 69.75-6L69.75-6ZM88.19-35L103.29-35 103.29 0 95.19 0 95.19-28.5 88.19-28.5 88.19-35ZM120.49-6.6L135.54-6.6 135.54 0 109.09 0 109.09-5.25 122.59-18Q124.74-20.05 125.49-21.53 126.24-23 126.24-24.45L126.24-24.45Q126.24-26.55 124.81-27.68 123.39-28.8 120.64-28.8L120.64-28.8Q118.34-28.8 116.49-27.93 114.64-27.05 113.39-25.3L113.39-25.3 107.49-29.1Q109.54-32.15 113.14-33.88 116.74-35.6 121.39-35.6L121.39-35.6Q125.29-35.6 128.22-34.33 131.14-33.05 132.76-30.73 134.39-28.4 134.39-25.25L134.39-25.25Q134.39-22.4 133.19-19.9 131.99-17.4 128.54-14.2L128.54-14.2 120.49-6.6ZM147.99-23.35Q149.39-25.3 151.76-26.3 154.14-27.3 157.24-27.3L157.24-27.3 157.24-20.1Q155.94-20.2 155.49-20.2L155.49-20.2Q152.14-20.2 150.24-18.32 148.34-16.45 148.34-12.7L148.34-12.7 148.34 0 140.54 0 140.54-26.9 147.99-26.9 147.99-23.35Z" opacity="1" transform="matrix(1,0,0,1,0,0)" fill="#ffffff" class="wordmark-text-0" data-fill-palette-color="primary" id="text-0"></path></svg></g></svg></g></svg></g></svg></g><g></g></svg></g></svg></g></svg></g></svg></g><defs></defs></svg><rect width="320" height="360" fill="none" stroke="none" visibility="hidden"></rect></g></svg></g></svg>